<svg xmlns="http://www.w3.org/2000/svg" version="1.1" xmlns:xlink="http://www.w3.org/1999/xlink" width="700" height="700"><svg id="SvgjsSvg1001" data-name="Слой_1" xmlns="http://www.w3.org/2000/svg" version="1.1" xmlns:xlink="http://www.w3.org/1999/xlink" viewBox="0 0 700 700">
  <!-- Generator: Adobe Illustrator 29.3.1, SVG Export Plug-In . SVG Version: 2.1.0 Build 151)  -->
  <defs>
    <style>
      .st0 {
        fill: #f9471f;
      }
    </style>
  </defs>
  <rect width="700" height="700" rx="109.9" ry="109.9"></rect>
  <g>
    <path class="st0" d="M61.4,258.3l82.3,42.3,50.2,65.9c3.2-14.4,9.5-27.6,18.1-39l-44.7-53c-.3-15.2-4.1-41.6-19.6-83.1-2.5-6.6-5.1-13.4-7.8-20.4.3-.5.7-1,.9-1.5l38.2-72.2c4-7.6,1.1-17-6.5-21s-17-1.1-21,6.5l-26.7,50.7c-17.5-42.2-34.1-79.2-34.4-79.8-3.5-7.7-12.7-11.2-20.5-7.7-7.8,3.5-11.3,12.7-7.8,20.5.3.8,34.9,77.8,56.5,135.7h0c9.3,25.1,13.8,43.5,15.9,56.4l-1.7,1.3-57.1-29.3c-7.6-3.9-17-.9-20.9,6.7-4,7.7-1,17,6.6,21Z"></path>
    <path class="st0" d="M464.4,307.4c12.8-6.9,28.9-9.5,44.3-7.1,37.8,5.8,63.8,41.2,58.1,79h0c-1,6.7-2,10.9-4.8,16.8,36,20,44.3,40.1,52.6,69.5,13.5-16.8,26.9-38.1,32.3-60l39.8-260.5-15.7,11.6-13.7-2.1-17.9,25.3-11.6-15.8-15.8,11.6-11.6-15.8-13.7-2.1-12.1,79c-16-9.3-33.9-15.9-53.2-18.8-40.3-6.2-78.1,4.3-109.1,25.9,12.5,24.9,17.8,46.9,17.8,46.9,0,0,14.8,1.7,34.3,16.6Z"></path>
    <path class="st0" d="M608.9,498.7h0c0-3.5.7-6.4.7-9.9,0-53.9-44-97.8-97.8-97.8h-12.8c0-53.2-42.5-96.4-95-97.8h19.1s-14.9-67.3-74.4-129c2.8,73.7-74.4,129-74.4,129h19.1c-53.2,1.4-95,44.7-95,97.8h-12.8c-53.9,0-97.8,44-97.8,97.8s.7,6.4.7,9.9c-35.4,15.6-59.5,49.7-59.5,89.3s44,97.8,97.8,97.8h441.6c54.6.7,98.5-43.2,98.5-97.8,0-39.6-24-73.7-58-89.3ZM273.7,482.5c-21.6,0-39.1-17.5-39.1-39.1s17.5-39.1,39.1-39.1,39.1,17.5,39.1,39.1c0,21.6-17.4,39.1-39.1,39.1ZM430.6,482.5c-21.6,0-39.1-17.5-39.1-39.1s17.5-39.1,39.1-39.1,39.1,17.5,39.1,39.1-17.5,39.1-39.1,39.1Z"></path>
  </g>
</svg><style>@media (prefers-color-scheme: light) { :root { filter: none; } }
@media (prefers-color-scheme: dark) { :root { filter: none; } }
</style></svg>