<?xml version="1.0" encoding="UTF-8"?>
<svg id="_Слой_1" data-name="Слой_1" xmlns="http://www.w3.org/2000/svg" version="1.1" xmlns:xlink="http://www.w3.org/1999/xlink" viewBox="0 0 512 512">
  <!-- Generator: Adobe Illustrator 29.3.1, SVG Export Plug-In . SVG Version: 2.1.0 Build 151)  -->
  <defs>
    <style>
      .st0 {
        fill: #f1c40f;
      }

      .st1 {
        opacity: .9;
      }

      .st1, .st2, .st3, .st4 {
        fill: #fff;
      }

      .st1, .st2, .st3, .st4, .st5 {
        isolation: isolate;
      }

      .st2 {
        font-family: Arial-BoldMT, Arial;
        font-size: 60.93px;
        font-weight: 700;
      }

      .st3 {
        opacity: .6;
      }

      .st6 {
        fill: #e74c3c;
      }

      .st4 {
        opacity: .3;
      }

      .st7 {
        fill: #2ecc71;
      }

      .st8 {
        fill: url(#_Безымянный_градиент_2);
      }

      .st9 {
        fill: #444;
        stroke: #888;
        stroke-width: 8px;
      }

      .st10 {
        fill: url(#_Безымянный_градиент_3);
      }

      .st11 {
        stroke: #f1c40f;
        stroke-width: 2px;
      }

      .st11, .st12 {
        fill: none;
      }

      .st5 {
        fill: #bdc3c7;
        font-family: ArialMT, Arial;
        font-size: 25.39px;
      }

      .st12 {
        stroke: #95a5a6;
        stroke-linecap: round;
        stroke-width: 3px;
      }
    </style>
    <linearGradient id="_Безымянный_градиент_3" data-name="Безымянный градиент 3" x1="-700.89" y1="795.39" x2="-698.72" y2="793.22" gradientTransform="translate(210197 159117) scale(300 -200)" gradientUnits="userSpaceOnUse">
      <stop offset="0" stop-color="#2c3e50"/>
      <stop offset="1" stop-color="#1a2530"/>
    </linearGradient>
    <linearGradient id="_Безымянный_градиент_2" data-name="Безымянный градиент 2" x1="-695.13" y1="793.75" x2="-695.13" y2="791.21" gradientTransform="translate(76722 87422) scale(110 -110)" gradientUnits="userSpaceOnUse">
      <stop offset="0" stop-color="#7fbbda"/>
      <stop offset="1" stop-color="#3498db"/>
    </linearGradient>
  </defs>
  <rect class="st10" x=".15" width="511.85" height="512" rx="15" ry="15"/>
  <circle class="st9" cx="257.93" cy="249.01" r="165.02"/>
  <circle class="st8" cx="257.93" cy="249.01" r="139.63"/>
  <rect class="st1" x="192.3" y="186.75" width="101.55" height="76.16" rx="3" ry="3" transform="translate(-18.67 22.04) rotate(-5)"/>
  <rect class="st3" x="232.35" y="200.44" width="76.16" height="101.55" rx="3" ry="3" transform="translate(-23.93 473.92) rotate(-80)"/>
  <rect class="st4" x="185.92" y="229.76" width="101.55" height="76.16" rx="3" ry="3" transform="translate(-61.26 70.39) rotate(-15)"/>
  <circle class="st6" cx="257.93" cy="452.12" r="17.77"/>
  <circle class="st0" cx="321.4" cy="452.12" r="12.69"/>
  <circle class="st7" cx="372.18" cy="452.12" r="12.69"/>
  <line class="st12" x1="207.16" y1="83.99" x2="257.93" y2="58.6"/>
  <line class="st12" x1="308.71" y1="83.99" x2="257.93" y2="58.6"/>
  <circle class="st6" cx="257.93" cy="58.6" r="10.16"/>
  <text class="st2" transform="translate(147.91 375.95)"><tspan x="0" y="0">PiShow</tspan></text>
  <text class="st5" transform="translate(113.28 426.73)"><tspan x="0" y="0">Legacy Device Slideshow</tspan></text>
  <g>
    <circle class="st11" cx="473.73" cy="122.07" r="30.47"/>
    <path class="st11" d="M473.73,101.76c11.22.1,20.23,9.28,20.13,20.49-.1,11.22-9.28,20.23-20.49,20.13-7.19-.06-13.81-3.93-17.41-10.15"/>
    <polygon class="st0" points="450.88 129.69 455.96 132.23 458.5 124.61 450.88 129.69"/>
  </g>
</svg>