<?xml version="1.0" encoding="UTF-8"?>
<svg id="_Слой_2" data-name="Слой 2" xmlns="http://www.w3.org/2000/svg" viewBox="0 0 512 512">
  <defs>
    <style>
      .cls-1 {
        fill: #3b3c42;
      }

      .cls-2 {
        fill: #fff;
      }

      .cls-3 {
        fill: #7cae63;
      }
    </style>
  </defs>
  <rect class="cls-1" width="512" height="512" rx="73.42" ry="73.42"/>
  <rect class="cls-2" x="197.06" y="97.09" width="158.64" height="33.48"/>
  <path class="cls-2" d="M383.72,97.09h-9.18v106.34h74.67c7.07,0,12.8,5.73,12.8,12.8v6.92h-87.47v27.33h78.51c4.95,0,8.96,4.01,8.96,8.96v11.35h-87.47v27.33h81.07c3.53,0,6.4,2.87,6.4,6.4v13.91h-87.47v27.33h83.63c2.12,0,3.84,1.72,3.84,3.84v16.47h-87.47v17.18h-174.92c-1.41,0-2.56,1.15-2.56,2.56v28.27c0,1.41,1.15,2.56,2.56,2.56h278.2c6.25,0,11.32-5.07,11.32-11.32v-209.5l-105.43-98.73Z"/>
  <path class="cls-2" d="M230.09,174.57c9.26,0,17.8,5,22.33,13.08l45.01,80.3c1.29,2.3,4.79,1.38,4.79-1.25v-87.01c0-2.83,2.29-5.12,5.12-5.12h24.34c5.66,0,10.24,4.58,10.24,10.24v146.67c0,4.24-3.44,7.68-7.68,7.68h-21.6c-9.26,0-17.8-5-22.33-13.08l-48.77-87c-1.29-2.3-4.79-1.38-4.79,1.25v93.71c0,2.83-2.29,5.12-5.12,5.12h-24.27c-5.7,0-10.31-4.62-10.31-10.31v-146.59c0-4.24,3.44-7.68,7.68-7.68h25.36Z"/>
  <path class="cls-3" d="M69.22,247.31l100.88-90.25v-50.96L32.3,226.8c-13.42,11.76-13.78,32.53-.76,44.74l138.56,129.97v-56.62l-100.91-95.69c-.54-.51-.53-1.38.03-1.88Z"/>
</svg>